# xmcd
#
# Track frame offsets:
#	150
#	15949
#	27893
#	45227
#	64090
#	79600
#	98612
#
# Disc length: 1551 seconds
# Revision: 0
# Processed by: cddbd v1.5.2PL0 Copyright (c) Steve Scherf et al.
# Submitted via: dBpowerAMP V12.0
#
DISCID=3d060d07
DTITLE=Brooks Williams - More New Everything EP
DYEAR=2013
DGENRE=Blues
TTITLE0=Goin? Away
TTITLE1=Joanna
TTITLE2=Winter Moon II
TTITLE3=Shakin? These Christmas Blues
TTITLE4=Teach Me (Album Version)
TTITLE5=Tippers
TTITLE6=Are You Tired Of Me My Darling
EXTD=
EXTT0=
EXTT1=
EXTT2=
EXTT3=
EXTT4=
EXTT5=
EXTT6=
PLAYORDER=
